<svg xmlns="http://www.w3.org/2000/svg" viewBox="0 0 128 128" role="img" aria-label="Huilerie et Oliveraie">
  <defs>
    <linearGradient id="background" x1="18" y1="12" x2="110" y2="116" gradientUnits="userSpaceOnUse">
      <stop stop-color="#386641"/>
      <stop offset="1" stop-color="#1f4728"/>
    </linearGradient>
    <linearGradient id="olive" x1="43" y1="46" x2="83" y2="98" gradientUnits="userSpaceOnUse">
      <stop stop-color="#b7c85a"/>
      <stop offset="1" stop-color="#71852b"/>
    </linearGradient>
  </defs>
  <rect width="128" height="128" rx="28" fill="url(#background)"/>
  <path d="M70 29c15-13 30-12 39-8-5 17-18 27-37 25" fill="#83ad55"/>
  <path d="M66 58c4-17 12-28 27-35" fill="none" stroke="#f2e8b2" stroke-width="5" stroke-linecap="round"/>
  <ellipse cx="62" cy="75" rx="24" ry="31" transform="rotate(18 62 75)" fill="url(#olive)"/>
  <path d="M50 55c-8 14-8 29-2 42" fill="none" stroke="#d9df91" stroke-width="5" stroke-linecap="round" opacity=".75"/>
  <path d="M91 58c0 0-15 19-15 29a15 15 0 0 0 30 0c0-10-15-29-15-29Z" fill="#e9bd45"/>
  <path d="M91 73c-5 8-7 12-7 16a7 7 0 0 0 4 6" fill="none" stroke="#ffe69a" stroke-width="4" stroke-linecap="round"/>
</svg>
